<?xml version="1.0" standalone="no"?>
<!DOCTYPE svg PUBLIC "-//W3C//DTD SVG 20010904//EN"
 "http://www.w3.org/TR/2001/REC-SVG-20010904/DTD/svg10.dtd">
<svg version="1.0" xmlns="http://www.w3.org/2000/svg"
 width="999.000000pt" height="999.000000pt" viewBox="0 0 999.000000 999.000000"
 preserveAspectRatio="xMidYMid meet">
<metadata>
Created by potrace 1.14, written by Peter Selinger 2001-2017
</metadata>
<g transform="translate(0.000000,999.000000) scale(0.100000,-0.100000)"
fill="#000000" stroke="none">
<path d="M4778 9975 c-2 -1 -56 -6 -121 -9 -65 -4 -126 -9 -135 -11 -9 -1 -48
-6 -87 -10 -323 -32 -747 -129 -1085 -248 -498 -176 -946 -418 -1379 -745 -69
-52 -128 -98 -131 -101 -3 -3 -34 -31 -70 -61 -141 -118 -405 -377 -510 -499
-30 -35 -60 -69 -65 -75 -6 -6 -44 -54 -86 -106 -576 -723 -930 -1553 -1054
-2472 -17 -122 -18 -138 -31 -303 -15 -192 -9 -666 11 -840 4 -32 13 -103 21
-170 44 -353 169 -829 312 -1185 68 -169 188 -425 262 -555 12 -22 34 -60 48
-85 97 -173 284 -446 428 -626 132 -165 183 -222 354 -394 202 -204 315 -303
535 -469 651 -492 1383 -805 2210 -946 55 -9 259 -34 325 -40 36 -3 85 -9 110
-12 71 -9 575 -10 680 -2 113 9 214 19 255 24 17 3 52 7 78 10 218 23 627 115
892 201 277 90 681 268 894 394 29 16 54 30 56 30 7 0 195 119 305 193 130 88
360 262 426 322 6 5 42 37 80 70 92 80 354 342 435 435 299 345 519 673 720
1071 43 86 79 159 79 162 0 3 15 38 34 79 87 188 230 606 262 768 3 14 14 59
24 100 36 145 84 427 104 625 27 254 27 765 1 980 -2 17 -7 55 -10 85 -64 566
-234 1140 -490 1650 -40 80 -82 163 -95 185 -194 346 -399 635 -660 930 -47
53 -324 331 -375 375 -112 98 -249 211 -349 285 -102 75 -334 235 -341 235 -2
0 -39 22 -83 49 -323 201 -789 402 -1202 519 -147 42 -374 95 -458 108 -20 3
-44 7 -52 9 -8 2 -37 7 -65 10 -27 4 -57 8 -65 10 -19 5 -164 23 -250 30 -36
3 -83 8 -105 11 -43 6 -581 14 -587 9z"/>
</g>
</svg>
